<?xml version="1.0" encoding="UTF-8" standalone="no"?>
<!DOCTYPE svg PUBLIC "-//W3C//DTD SVG 1.1//EN" "http://www.w3.org/Graphics/SVG/1.1/DTD/svg11.dtd">
<svg width="100%" height="100%" viewBox="0 0 500 700" version="1.1" xmlns="http://www.w3.org/2000/svg" xmlns:xlink="http://www.w3.org/1999/xlink" xml:space="preserve" xmlns:serif="http://www.serif.com/" style="fill-rule:evenodd;clip-rule:evenodd;stroke-linecap:round;stroke-linejoin:round;stroke-miterlimit:10;">
    <g>
        <g>
            <path d="M154.33,89.333c25.774,0 46.67,-20.892 46.67,-46.666l-6.667,0c0,22.093 -17.91,40 -40.003,40l0,6.666m-26.663,-46.666c0,14.729 11.94,26.666 26.664,26.666c14.729,0 26.669,-11.937 26.669,-26.666l6.667,0c0,18.411 -14.926,33.333 -33.337,33.333c-18.408,0 -33.33,-14.922 -33.33,-33.333l6.667,0m26.666,0l20,0c0,11.048 -8.955,20 -20.003,20c-11.045,0 -19.997,-8.952 -19.997,-20c0,-11.049 8.952,-20 19.997,-20l0.003,20Z" style="fill:rgb(255,0,0);fill-rule:nonzero;stroke:rgb(191,64,64);stroke-opacity:0;stroke-width:1px;"/>
        </g>
        <g>
            <path d="M112,185.333c18.408,-0 33.333,-14.925 33.333,-33.333c-0,-18.408 -14.925,-33.333 -33.333,-33.333l0,-6.667c22.09,-0 40,17.91 40,40c-0,22.09 -17.91,40 -40,40l-0,-6.667m80,-26.666c-18.408,-0 -33.334,14.925 -33.334,33.333l-6.666,0c-0,-22.09 17.91,-40 40,-40l-0,6.667m-10,23.333l-0,10c-5.486,0 -10,-4.514 -10,-10c-0,-5.486 4.514,-10 10,-10c5.486,0 10,4.514 10,10c-0,5.482 -4.508,9.995 -9.99,10m-56.01,-40l-0.668,13.333c-7.314,-0 -13.333,-6.019 -13.333,-13.333c-0,-7.314 6.019,-13.333 13.333,-13.333c7.314,-0 13.333,6.019 13.333,13.333c-0,7.309 -6.01,13.326 -13.32,13.333m50.055,-36.733l-0.067,16.734c-9.143,0 -16.667,-7.524 -16.667,-16.667c-0,-9.143 7.524,-16.667 16.667,-16.667c9.143,-0 16.667,7.524 16.667,16.667c-0,9.137 -7.513,16.658 -16.65,16.667l0.05,-16.734Z" style="fill:rgb(255,0,0);fill-rule:nonzero;stroke:rgb(191,64,64);stroke-opacity:0;stroke-width:1px;"/>
        </g>
        <g>
            <path d="M340.33,89.333c25.774,0 46.67,-20.892 46.67,-46.666l-6.667,0c0,22.093 -17.91,40 -40.003,40l0,6.666m-26.663,-46.666c0,14.729 11.94,26.666 26.664,26.666c14.729,0 26.669,-11.937 26.669,-26.666l6.667,0c0,18.411 -14.926,33.333 -33.337,33.333c-18.408,0 -33.33,-14.922 -33.33,-33.333l6.667,0m26.666,0l20,0c0,11.048 -8.955,20 -20.003,20c-11.045,0 -19.997,-8.952 -19.997,-20c0,-11.049 8.952,-20 19.997,-20l0.003,20Z" style="fill:rgb(255,0,0);fill-rule:nonzero;stroke:rgb(191,64,64);stroke-opacity:0;stroke-width:1px;"/>
        </g>
        <g>
            <path d="M406.667,49.33c0,25.774 20.892,46.67 46.666,46.67l0,-6.667c-22.093,0 -40,-17.91 -40,-40.003l-6.666,0m46.666,-26.663c-14.729,0 -26.666,11.94 -26.666,26.664c0,14.729 11.937,26.669 26.666,26.669l0,6.667c-18.411,0 -33.333,-14.926 -33.333,-33.337c0,-18.408 14.922,-33.33 33.333,-33.33l0,6.667m0,26.666l0,20c-11.048,0 -20,-8.955 -20,-20.003c0,-11.045 8.952,-19.997 20,-19.997c11.049,0 20,8.952 20,19.997l-20,0.003Z" style="fill:rgb(255,0,0);fill-rule:nonzero;stroke:rgb(191,64,64);stroke-opacity:0;stroke-width:1px;"/>
        </g>
        <g>
            <path d="M99,118.667c-18.408,0 -33.333,14.925 -33.333,33.333c0,18.408 14.925,33.333 33.333,33.333l0,6.667c-22.09,0 -40,-17.91 -40,-40c0,-22.09 17.91,-40 40,-40l0,6.667m-80,26.666c18.408,0 33.334,-14.925 33.334,-33.333l6.666,0c0,22.09 -17.91,40 -40,40l0,-6.667m10,-23.333l0,-10c5.486,0 10,4.514 10,10c0,5.486 -4.514,10 -10,10c-5.486,0 -10,-4.514 -10,-10c0,-5.482 4.508,-9.995 9.99,-10m56.01,40l0.668,-13.333c7.314,0 13.333,6.019 13.333,13.333c0,7.314 -6.019,13.333 -13.333,13.333c-7.314,0 -13.333,-6.019 -13.333,-13.333c0,-7.309 6.01,-13.326 13.32,-13.333m-50.055,36.733l0.067,-16.734c9.143,0 16.667,7.524 16.667,16.667c0,9.143 -7.524,16.667 -16.667,16.667c-9.143,0 -16.667,-7.524 -16.667,-16.667c0,-9.137 7.513,-16.658 16.65,-16.667l-0.05,16.734Z" style="fill:rgb(255,0,0);fill-rule:nonzero;stroke:rgb(191,64,64);stroke-opacity:0;stroke-width:1px;"/>
        </g>
        <g>
            <path d="M160.67,215.667c-25.774,-0 -46.67,20.892 -46.67,46.666l6.667,-0c-0,-22.093 17.91,-40 40.003,-40l-0,-6.666m26.663,46.666c-0,-14.729 -11.94,-26.666 -26.664,-26.666c-14.729,-0 -26.669,11.937 -26.669,26.666l-6.667,-0c-0,-18.411 14.926,-33.333 33.337,-33.333c18.408,-0 33.33,14.922 33.33,33.333l-6.667,-0m-26.666,-0l-20,-0c-0,-11.048 8.955,-20 20.003,-20c11.045,-0 19.997,8.952 19.997,20c-0,11.049 -8.952,20 -19.997,20l-0.003,-20Z" style="fill:rgb(255,0,0);fill-rule:nonzero;stroke:rgb(191,64,64);stroke-opacity:0;stroke-width:1px;"/>
        </g>
        <g>
            <path d="M213.667,111c0,18.408 14.925,33.333 33.333,33.333c18.408,-0 33.333,-14.925 33.333,-33.333l6.667,-0c0,22.09 -17.91,40 -40,40c-22.09,-0 -40,-17.91 -40,-40l6.667,-0m26.666,80c0,-18.408 -14.925,-33.334 -33.333,-33.334l0,-6.666c22.09,-0 40,17.91 40,40l-6.667,-0m-23.333,-10l-10,-0c0,-5.486 4.514,-10 10,-10c5.486,-0 10,4.514 10,10c0,5.486 -4.514,10 -10,10c-5.482,-0 -9.995,-4.508 -10,-9.99m40,-56.01l-13.333,-0.668c0,-7.314 6.019,-13.333 13.333,-13.333c7.314,-0 13.333,6.019 13.333,13.333c0,7.314 -6.019,13.333 -13.333,13.333c-7.309,-0 -13.326,-6.01 -13.333,-13.32m36.733,50.055l-16.734,-0.067c0,-9.143 7.524,-16.667 16.667,-16.667c9.143,-0 16.667,7.524 16.667,16.667c0,9.143 -7.524,16.667 -16.667,16.667c-9.137,-0 -16.658,-7.513 -16.667,-16.65l16.734,0.05Z" style="fill:rgb(255,0,0);fill-rule:nonzero;stroke:rgb(191,64,64);stroke-opacity:0;stroke-width:1px;"/>
        </g>
        <g>
            <path d="M480,115.667c-18.408,0 -33.333,14.925 -33.333,33.333c0,18.408 14.925,33.333 33.333,33.333l0,6.667c-22.09,0 -40,-17.91 -40,-40c0,-22.09 17.91,-40 40,-40l0,6.667m-80,26.666c18.408,0 33.334,-14.925 33.334,-33.333l6.666,0c0,22.09 -17.91,40 -40,40l0,-6.667m10,-23.333l0,-10c5.486,0 10,4.514 10,10c0,5.486 -4.514,10 -10,10c-5.486,0 -10,-4.514 -10,-10c0,-5.482 4.508,-9.995 9.99,-10m56.01,40l0.668,-13.333c7.314,0 13.333,6.019 13.333,13.333c0,7.314 -6.019,13.333 -13.333,13.333c-7.314,0 -13.333,-6.019 -13.333,-13.333c0,-7.309 6.01,-13.326 13.32,-13.333m-50.055,36.733l0.067,-16.734c9.143,0 16.667,7.524 16.667,16.667c0,9.143 -7.524,16.667 -16.667,16.667c-9.143,0 -16.667,-7.524 -16.667,-16.667c0,-9.137 7.513,-16.658 16.65,-16.667l-0.05,16.734Z" style="fill:rgb(255,0,0);fill-rule:nonzero;stroke:rgb(191,64,64);stroke-opacity:0;stroke-width:1px;"/>
        </g>
        <g>
            <path d="M94.333,248.67c0,-25.774 -20.892,-46.67 -46.666,-46.67l0,6.667c22.093,-0 40,17.91 40,40.003l6.666,-0m-46.666,26.663c14.729,-0 26.666,-11.94 26.666,-26.664c0,-14.729 -11.937,-26.669 -26.666,-26.669l0,-6.667c18.411,-0 33.333,14.926 33.333,33.337c0,18.408 -14.922,33.33 -33.333,33.33l0,-6.667m0,-26.666l0,-20c11.048,-0 20,8.955 20,20.003c0,11.045 -8.952,19.997 -20,19.997c-11.049,-0 -20,-8.952 -20,-19.997l20,-0.003Z" style="fill:rgb(255,0,0);fill-rule:nonzero;stroke:rgb(191,64,64);stroke-opacity:0;stroke-width:1px;"/>
        </g>
        <g>
            <path d="M282.333,258.67c0,-25.774 -20.892,-46.67 -46.666,-46.67l0,6.667c22.093,-0 40,17.91 40,40.003l6.666,-0m-46.666,26.663c14.729,-0 26.666,-11.94 26.666,-26.664c0,-14.729 -11.937,-26.669 -26.666,-26.669l0,-6.667c18.411,-0 33.333,14.926 33.333,33.337c0,18.408 -14.922,33.33 -33.333,33.33l0,-6.667m0,-26.666l0,-20c11.048,-0 20,8.955 20,20.003c0,11.045 -8.952,19.997 -20,19.997c-11.049,-0 -20,-8.952 -20,-19.997l20,-0.003Z" style="fill:rgb(255,0,0);fill-rule:nonzero;stroke:rgb(191,64,64);stroke-opacity:0;stroke-width:1px;"/>
        </g>
        <g>
            <path d="M253.67,308.667c-25.774,-0 -46.67,20.892 -46.67,46.666l6.667,-0c-0,-22.093 17.91,-40 40.003,-40l-0,-6.666m26.663,46.666c-0,-14.729 -11.94,-26.666 -26.664,-26.666c-14.729,-0 -26.669,11.937 -26.669,26.666l-6.667,-0c-0,-18.411 14.926,-33.333 33.337,-33.333c18.408,0 33.33,14.922 33.33,33.333l-6.667,0m-26.666,0l-20,0c-0,-11.048 8.955,-20 20.003,-20c11.045,0 19.997,8.952 19.997,20c-0,11.049 -8.952,20 -19.997,20l-0.003,-20Z" style="fill:rgb(255,0,0);fill-rule:nonzero;stroke:rgb(191,64,64);stroke-opacity:0;stroke-width:1px;"/>
        </g>
        <g>
            <path d="M406.116,202.466c0.255,18.407 15.386,33.123 33.792,32.868c18.406,-0.255 33.123,-15.385 32.868,-33.792l6.666,-0.092c0.306,22.088 -17.354,40.244 -39.441,40.55c-22.088,0.307 -40.245,-17.353 -40.551,-39.441l6.666,-0.093m27.773,79.623c-0.256,-18.406 -15.386,-33.124 -33.792,-32.869l-0.093,-6.665c22.088,-0.306 40.245,17.354 40.551,39.442l-6.666,0.092m-23.47,-9.676l-9.999,0.139c-0.076,-5.485 4.375,-10.062 9.861,-10.138c5.485,-0.076 10.061,4.376 10.137,9.861c0.076,5.485 -4.375,10.061 -9.86,10.137c-5.482,0.076 -10.056,-4.369 -10.138,-9.85m39.22,-56.559l-13.341,-0.483c-0.101,-7.314 5.834,-13.415 13.147,-13.517c7.314,-0.101 13.415,5.834 13.517,13.147c0.101,7.314 -5.834,13.415 -13.147,13.517c-7.309,0.101 -13.408,-5.825 -13.517,-13.134m37.424,49.541l-16.734,0.165c-0.126,-9.142 7.292,-16.77 16.435,-16.897c9.142,-0.126 16.769,7.293 16.896,16.435c0.127,9.142 -7.292,16.77 -16.434,16.896c-9.136,0.127 -16.761,-7.282 -16.897,-16.417l16.734,-0.182Z" style="fill:rgb(255,0,0);fill-rule:nonzero;stroke:rgb(191,64,64);stroke-opacity:0;stroke-width:1px;"/>
        </g>
        <g>
            <path d="M27.667,295c0,18.408 14.925,33.333 33.333,33.333c18.408,0 33.333,-14.925 33.333,-33.333l6.667,0c0,22.09 -17.91,40 -40,40c-22.09,-0 -40,-17.91 -40,-40l6.667,-0m26.666,80c0,-18.408 -14.925,-33.334 -33.333,-33.334l0,-6.666c22.09,-0 40,17.91 40,40l-6.667,-0m-23.333,-10l-10,-0c0,-5.486 4.514,-10 10,-10c5.486,-0 10,4.514 10,10c0,5.486 -4.514,10 -10,10c-5.482,-0 -9.995,-4.508 -10,-9.99m40,-56.01l-13.333,-0.668c0,-7.314 6.019,-13.333 13.333,-13.333c7.314,-0 13.333,6.019 13.333,13.333c0,7.314 -6.019,13.333 -13.333,13.333c-7.309,-0 -13.326,-6.01 -13.333,-13.32m36.733,50.055l-16.734,-0.067c0,-9.143 7.524,-16.667 16.667,-16.667c9.143,-0 16.667,7.524 16.667,16.667c0,9.143 -7.524,16.667 -16.667,16.667c-9.137,-0 -16.658,-7.513 -16.667,-16.65l16.734,0.05Z" style="fill:rgb(255,0,0);fill-rule:nonzero;stroke:rgb(191,64,64);stroke-opacity:0;stroke-width:1px;"/>
        </g>
        <g>
            <path d="M150.33,418.333c25.774,0 46.67,-20.892 46.67,-46.666l-6.667,0c0,22.093 -17.91,40 -40.003,40l0,6.666m-26.663,-46.666c0,14.729 11.94,26.666 26.664,26.666c14.729,0 26.669,-11.937 26.669,-26.666l6.667,0c0,18.411 -14.926,33.333 -33.337,33.333c-18.408,0 -33.33,-14.922 -33.33,-33.333l6.667,0m26.666,0l20,0c0,11.048 -8.955,20 -20.003,20c-11.045,0 -19.997,-8.952 -19.997,-20c0,-11.049 8.952,-20 19.997,-20l0.003,20Z" style="fill:rgb(255,0,0);fill-rule:nonzero;stroke:rgb(191,64,64);stroke-opacity:0;stroke-width:1px;"/>
        </g>
        <g>
            <path d="M340.33,368.333c25.774,0 46.67,-20.892 46.67,-46.666l-6.667,0c0,22.093 -17.91,40 -40.003,40l0,6.666m-26.663,-46.666c0,14.729 11.94,26.666 26.664,26.666c14.729,0 26.669,-11.937 26.669,-26.666l6.667,0c0,18.411 -14.926,33.333 -33.337,33.333c-18.408,0 -33.33,-14.922 -33.33,-33.333l6.667,0m26.666,0l20,0c0,11.048 -8.955,20 -20.003,20c-11.045,0 -19.997,-8.952 -19.997,-20c0,-11.049 8.952,-20 19.997,-20l0.003,20Z" style="fill:rgb(255,0,0);fill-rule:nonzero;stroke:rgb(191,64,64);stroke-opacity:0;stroke-width:1px;"/>
        </g>
        <g>
            <path d="M480,301.667c-18.408,0 -33.333,14.925 -33.333,33.333c0,18.408 14.925,33.333 33.333,33.333l0,6.667c-22.09,0 -40,-17.91 -40,-40c0,-22.09 17.91,-40 40,-40l0,6.667m-80,26.666c18.408,0 33.334,-14.925 33.334,-33.333l6.666,0c0,22.09 -17.91,40 -40,40l0,-6.667m10,-23.333l0,-10c5.486,0 10,4.514 10,10c0,5.486 -4.514,10 -10,10c-5.486,0 -10,-4.514 -10,-10c0,-5.482 4.508,-9.995 9.99,-10m56.01,40l0.668,-13.333c7.314,0 13.333,6.019 13.333,13.333c0,7.314 -6.019,13.333 -13.333,13.333c-7.314,0 -13.333,-6.019 -13.333,-13.333c0,-7.309 6.01,-13.326 13.32,-13.333m-50.055,36.733l0.067,-16.734c9.143,0 16.667,7.524 16.667,16.667c0,9.143 -7.524,16.667 -16.667,16.667c-9.143,0 -16.667,-7.524 -16.667,-16.667c0,-9.137 7.513,-16.658 16.65,-16.667l-0.05,16.734Z" style="fill:rgb(255,0,0);fill-rule:nonzero;stroke:rgb(191,64,64);stroke-opacity:0;stroke-width:1px;"/>
        </g>
        <g>
            <path d="M21,561.333c18.408,0 33.333,-14.925 33.333,-33.333c-0,-18.408 -14.925,-33.333 -33.333,-33.333l0,-6.667c22.09,-0 40,17.91 40,40c-0,22.09 -17.91,40 -40,40l-0,-6.667m80,-26.666c-18.408,0 -33.334,14.925 -33.334,33.333l-6.666,0c-0,-22.09 17.91,-40 40,-40l-0,6.667m-10,23.333l-0,10c-5.486,0 -10,-4.514 -10,-10c-0,-5.486 4.514,-10 10,-10c5.486,0 10,4.514 10,10c-0,5.482 -4.508,9.995 -9.99,10m-56.01,-40l-0.668,13.333c-7.314,0 -13.333,-6.019 -13.333,-13.333c-0,-7.314 6.019,-13.333 13.333,-13.333c7.314,0 13.333,6.019 13.333,13.333c-0,7.309 -6.01,13.326 -13.32,13.333m50.055,-36.733l-0.067,16.734c-9.143,0 -16.667,-7.524 -16.667,-16.667c-0,-9.143 7.524,-16.667 16.667,-16.667c9.143,0 16.667,7.524 16.667,16.667c-0,9.137 -7.513,16.658 -16.65,16.667l0.05,-16.734Z" style="fill:rgb(255,0,0);fill-rule:nonzero;stroke:rgb(191,64,64);stroke-opacity:0;stroke-width:1px;"/>
        </g>
        <g>
            <path d="M247.33,461.333c25.774,0 46.67,-20.892 46.67,-46.666l-6.667,0c0,22.093 -17.91,40 -40.003,40l-0,6.666m-26.663,-46.666c0,14.729 11.94,26.666 26.664,26.666c14.729,0 26.669,-11.937 26.669,-26.666l6.667,0c0,18.411 -14.926,33.333 -33.337,33.333c-18.408,0 -33.33,-14.922 -33.33,-33.333l6.667,0m26.666,0l20,0c0,11.048 -8.955,20 -20.003,20c-11.045,0 -19.997,-8.952 -19.997,-20c0,-11.049 8.952,-20 19.997,-20l0.003,20Z" style="fill:rgb(255,0,0);fill-rule:nonzero;stroke:rgb(191,64,64);stroke-opacity:0;stroke-width:1px;"/>
        </g>
        <g>
            <path d="M354.67,392.667c-25.774,-0 -46.67,20.892 -46.67,46.666l6.667,-0c0,-22.093 17.91,-40 40.003,-40l0,-6.666m26.663,46.666c0,-14.729 -11.94,-26.666 -26.664,-26.666c-14.729,-0 -26.669,11.937 -26.669,26.666l-6.667,-0c-0,-18.411 14.926,-33.333 33.337,-33.333c18.408,0 33.33,14.922 33.33,33.333l-6.667,0m-26.666,0l-20,0c-0,-11.048 8.955,-20 20.003,-20c11.045,0 19.997,8.952 19.997,20c-0,11.049 -8.952,20 -19.997,20l-0.003,-20Z" style="fill:rgb(255,0,0);fill-rule:nonzero;stroke:rgb(191,64,64);stroke-opacity:0;stroke-width:1px;"/>
        </g>
        <g>
            <path d="M433.33,461.333c25.774,0 46.67,-20.892 46.67,-46.666l-6.667,0c0,22.093 -17.91,40 -40.003,40l0,6.666m-26.663,-46.666c0,14.729 11.94,26.666 26.664,26.666c14.729,0 26.669,-11.937 26.669,-26.666l6.667,0c0,18.411 -14.926,33.333 -33.337,33.333c-18.408,0 -33.33,-14.922 -33.33,-33.333l6.667,0m26.666,0l20,0c0,11.048 -8.955,20 -20.003,20c-11.045,0 -19.997,-8.952 -19.997,-20c0,-11.049 8.952,-20 19.997,-20l0.003,20Z" style="fill:rgb(255,0,0);fill-rule:nonzero;stroke:rgb(191,64,64);stroke-opacity:0;stroke-width:1px;"/>
        </g>
        <g>
            <path d="M154.33,554.333c25.774,0 46.67,-20.892 46.67,-46.666l-6.667,0c0,22.093 -17.91,40 -40.003,40l0,6.666m-26.663,-46.666c0,14.729 11.94,26.666 26.664,26.666c14.729,0 26.669,-11.937 26.669,-26.666l6.667,0c0,18.411 -14.926,33.333 -33.337,33.333c-18.408,0 -33.33,-14.922 -33.33,-33.333l6.667,0m26.666,0l20,0c0,11.048 -8.955,20 -20.003,20c-11.045,0 -19.997,-8.952 -19.997,-20c0,-11.049 8.952,-20 19.997,-20l0.003,20Z" style="fill:rgb(255,0,0);fill-rule:nonzero;stroke:rgb(191,64,64);stroke-opacity:0;stroke-width:1px;"/>
        </g>
        <g>
            <path d="M247.33,554.333c25.774,0 46.67,-20.892 46.67,-46.666l-6.667,0c0,22.093 -17.91,40 -40.003,40l-0,6.666m-26.663,-46.666c0,14.729 11.94,26.666 26.664,26.666c14.729,0 26.669,-11.937 26.669,-26.666l6.667,0c0,18.411 -14.926,33.333 -33.337,33.333c-18.408,0 -33.33,-14.922 -33.33,-33.333l6.667,0m26.666,0l20,0c0,11.048 -8.955,20 -20.003,20c-11.045,0 -19.997,-8.952 -19.997,-20c0,-11.049 8.952,-20 19.997,-20l0.003,20Z" style="fill:rgb(255,0,0);fill-rule:nonzero;stroke:rgb(191,64,64);stroke-opacity:0;stroke-width:1px;"/>
        </g>
        <g>
            <path d="M207,654.333c18.408,0 33.333,-14.925 33.333,-33.333c-0,-18.408 -14.925,-33.333 -33.333,-33.333l0,-6.667c22.09,0 40,17.91 40,40c-0,22.09 -17.91,40 -40,40l-0,-6.667m80,-26.666c-18.408,0 -33.334,14.925 -33.334,33.333l-6.666,0c-0,-22.09 17.91,-40 40,-40l0,6.667m-10,23.333l-0,10c-5.486,0 -10,-4.514 -10,-10c-0,-5.486 4.514,-10 10,-10c5.486,0 10,4.514 10,10c-0,5.482 -4.508,9.995 -9.99,10m-56.01,-40l-0.668,13.333c-7.314,0 -13.333,-6.019 -13.333,-13.333c-0,-7.314 6.019,-13.333 13.333,-13.333c7.314,0 13.333,6.019 13.333,13.333c-0,7.309 -6.01,13.326 -13.32,13.333m50.055,-36.733l-0.067,16.734c-9.143,0 -16.667,-7.524 -16.667,-16.667c-0,-9.143 7.524,-16.667 16.667,-16.667c9.143,0 16.667,7.524 16.667,16.667c-0,9.137 -7.513,16.658 -16.65,16.667l0.05,-16.734Z" style="fill:rgb(255,0,0);fill-rule:nonzero;stroke:rgb(191,64,64);stroke-opacity:0;stroke-width:1px;"/>
        </g>
        <g>
            <path d="M346.67,587.667c-25.774,0 -46.67,20.892 -46.67,46.666l6.667,-0c0,-22.093 17.91,-40 40.003,-40l0,-6.666m26.663,46.666c0,-14.729 -11.94,-26.666 -26.664,-26.666c-14.729,0 -26.669,11.937 -26.669,26.666l-6.667,-0c-0,-18.411 14.926,-33.333 33.337,-33.333c18.408,-0 33.33,14.922 33.33,33.333l-6.667,-0m-26.666,-0l-20,-0c-0,-11.048 8.955,-20 20.003,-20c11.045,-0 19.997,8.952 19.997,20c-0,11.049 -8.952,20 -19.997,20l-0.003,-20Z" style="fill:rgb(255,0,0);fill-rule:nonzero;stroke:rgb(191,64,64);stroke-opacity:0;stroke-width:1px;"/>
        </g>
        <path d="M7,66.001c9.773,-0.611 25.581,5.571 19.986,-5.815c-5.595,-11.41 13.951,-11.41 9.773,0c-4.178,11.386 9.333,3.86 19.106,5.815c9.773,1.979 24.848,5.79 20.352,-5.619c-4.52,-11.41 15.026,-11.41 9.773,-0c-5.277,11.409 8.967,7.476 18.74,5.619c9.773,-1.832 24.457,-5.4 18.007,5.986c-6.426,11.41 13.12,11.41 9.773,-0c-3.323,-11.386 11.312,-5.913 21.085,-5.986c9.773,-0.049 25.214,-7.427 18.935,3.982c-6.255,11.41 13.291,11.41 9.773,0c-3.494,-11.409 10.384,-4.862 20.157,-3.982c9.773,0.88 24.945,7.818 18.935,-3.567c-5.986,-11.41 13.56,-11.41 9.773,-0c-3.763,11.385 10.384,4.202 20.157,3.567c9.773,-0.611 25.287,7.403 21.036,-4.007c-4.227,-11.41 15.319,-11.41 9.773,0c-5.522,11.41 8.283,4.544 18.056,4.007c9.773,-0.513 26.118,-6.743 19.986,4.667c-6.157,11.385 13.389,11.385 9.773,-0c-3.641,-11.41 9.333,-2.395 19.106,-4.667c9.773,-2.272 23.088,5.424 19.301,-5.962c-3.787,-11.41 15.759,-11.41 9.773,0c-5.986,11.386 10.018,4.936 19.791,5.962c9.773,1.026 24.383,-3.885 19.985,7.501c-4.373,11.41 15.173,11.41 9.773,-0c-5.375,-11.386 9.334,-7.501 19.107,-7.501c9.773,0.024 27.755,-5.277 21.256,6.133c-6.499,11.41 13.047,11.41 9.773,-0c-3.274,-11.41 8.063,-4.594 17.836,-6.133m-488.65,57.025c9.773,-0.513 26.754,6.304 20.01,-5.082c-6.719,-11.41 12.827,-11.41 9.773,0c-3.029,11.386 9.309,2.81 19.082,5.082c9.773,2.248 26.558,4.862 20.132,-6.548c-6.401,-11.409 13.145,-11.409 9.773,0c-3.347,11.41 9.187,7.843 18.96,6.548c9.773,-1.319 22.551,5.4 18.3,-6.01c-4.251,-11.41 15.295,-11.41 9.773,-0c-5.522,11.41 11.019,5.155 20.792,6.01c9.773,0.831 22.551,-7.378 19.595,4.032c-2.957,11.385 16.589,11.385 9.773,-0c-6.817,-11.41 9.724,-5.888 19.497,-4.032c9.773,1.857 24.164,4.105 18.666,-7.305c-5.497,-11.385 14.049,-11.385 9.773,0c-4.275,11.41 10.653,9.236 20.426,7.305c9.773,-1.954 20.816,6.255 17.64,-5.155c-3.152,-11.385 16.394,-11.385 9.773,0c-6.597,11.41 11.679,3.763 21.452,5.155c9.773,1.369 27.242,6.866 21.061,-4.544c-6.157,-11.41 13.389,-11.41 9.773,-0c-3.592,11.41 8.258,6.181 18.031,4.544c9.773,-1.661 23.088,-5.741 18.837,5.669c-4.276,11.385 15.27,11.385 9.773,-0c-5.522,-11.41 10.482,-3.445 20.255,-5.669c9.773,-2.247 21.818,-7.94 18.153,3.445c-3.665,11.41 15.881,11.41 9.773,0c-6.108,-11.385 11.166,-1.856 20.939,-3.445c9.773,-1.612 24.481,-5.521 18.593,5.889c-5.864,11.41 13.682,11.41 9.773,-0c-3.885,-11.41 10.726,-4.52 20.499,-5.889m-488.65,57.001c9.773,0.831 27.487,7.599 21.305,-3.787c-6.181,-11.41 13.365,-11.41 9.773,0c-3.591,11.386 8.014,3.714 17.787,3.787c9.773,0.074 22.453,3.568 17.714,-7.818c-4.765,-11.41 14.781,-11.41 9.773,-0c-5.034,11.386 11.605,9.04 21.378,7.818c9.773,-1.221 23.968,-5.082 19.424,6.304c-4.545,11.41 15.001,11.41 9.773,-0c-5.229,-11.386 9.895,-5.375 19.668,-6.304c9.773,-0.928 24.774,7.403 20.45,-4.007c-4.325,-11.385 15.221,-11.385 9.773,0c-5.449,11.41 8.869,5.644 18.642,4.007c9.773,-1.637 23.113,7.086 18.764,-4.3c-4.373,-11.41 15.173,-11.41 9.773,0c-5.424,11.386 10.555,6.084 20.328,4.3c9.773,-1.783 25.874,6.841 21.158,-4.569c-4.74,-11.409 14.806,-11.409 9.773,0c-5.057,11.41 8.161,4.178 17.934,4.569c9.773,0.391 26.216,5.766 19.375,-5.619c-6.817,-11.41 12.729,-11.41 9.773,-0c-2.932,11.385 9.944,6.743 19.717,5.619c9.773,-1.124 24.09,-7.354 19.986,4.056c-4.081,11.41 15.465,11.41 9.773,0c-5.669,-11.41 9.333,-6.157 19.106,-4.056c9.773,2.102 24.286,5.962 20.425,-5.424c-3.836,-11.41 15.71,-11.41 9.773,0c-5.912,11.386 8.894,5.693 18.667,5.424c9.773,-0.268 22.404,4.227 18.006,-7.158c-4.373,-11.41 15.173,-11.41 9.773,-0c-5.375,11.385 11.313,6.694 21.086,7.158m-488.65,57.001c9.773,0.978 26.314,-6.645 20.572,4.765c-5.717,11.385 13.829,11.385 9.773,-0c-4.031,-11.41 8.747,-6.524 18.52,-4.765c9.773,1.784 24.726,7.672 20.083,-3.738c-4.666,-11.41 14.88,-11.41 9.773,0c-5.13,11.41 9.236,2.688 19.009,3.738c9.773,1.051 23.528,-6.816 18.642,4.594c-4.887,11.41 14.659,11.41 9.773,-0c-4.887,-11.41 10.677,-4.032 20.45,-4.594c9.773,-0.537 23.797,4.887 19.399,-6.523c-4.422,-11.386 15.124,-11.386 9.773,-0c-5.375,11.41 9.92,8.16 19.693,6.523c9.773,-1.637 26.485,6.157 20.254,-5.253c-6.23,-11.385 13.316,-11.385 9.773,0c-3.542,11.41 9.065,4.911 18.838,5.253c9.773,0.342 23.089,7.941 17.762,-3.469c-5.326,-11.41 14.22,-11.41 9.773,-0c-4.446,11.41 11.557,3.592 21.33,3.469c9.773,-0.122 24.237,-7.916 20.743,3.494c-3.518,11.386 16.028,11.386 9.773,0c-6.279,-11.41 8.576,-2.101 18.349,-3.494c9.773,-1.368 20.963,-6.792 18.006,4.618c-2.98,11.386 16.566,11.386 9.773,0c-6.816,-11.41 11.313,-3.396 21.086,-4.618c9.773,-1.221 24.334,-5.399 21.036,6.011c-3.298,11.385 16.248,11.385 9.773,-0c-6.475,-11.41 8.283,-6.792 18.056,-6.011c9.773,0.807 24.554,-5.692 20.67,5.693c-3.885,11.41 15.661,11.41 9.773,0c-5.889,-11.385 8.649,-7.183 18.422,-5.693m-488.65,57.026c9.773,-1.393 27.12,5.937 20.499,-5.473c-6.646,-11.386 12.9,-11.386 9.773,-0c-3.152,11.41 8.82,5.228 18.593,5.473c9.773,0.22 25.727,-7.159 20.694,4.251c-5.033,11.386 14.513,11.386 9.773,0c-4.74,-11.41 8.625,-4.764 18.398,-4.251c9.773,0.513 25.263,5.155 20.157,-6.255c-5.107,-11.41 14.439,-11.41 9.773,0c-4.667,11.41 9.162,8.429 18.935,6.255c9.773,-2.199 26.289,5.179 21.134,-6.231c-5.18,-11.385 14.366,-11.385 9.773,0c-4.618,11.41 8.185,6.915 17.958,6.231c9.773,-0.709 24.628,7.061 20.328,-4.325c-4.3,-11.41 15.246,-11.41 9.773,0c-5.473,11.386 8.991,3.274 18.764,4.325c9.773,1.026 25.629,-5.082 20.938,6.328c-4.691,11.41 14.855,11.41 9.773,-0c-5.082,-11.41 8.381,-5.498 18.154,-6.328c9.773,-0.831 24.432,6.377 20.987,-5.009c-3.42,-11.41 16.126,-11.41 9.773,0c-6.328,11.386 8.332,6.353 18.105,5.009c9.773,-1.368 21.354,-3.909 18.275,7.501c-3.078,11.385 16.468,11.385 9.773,-0c-6.694,-11.41 11.044,-6.231 20.817,-7.501c9.773,-1.295 23.748,-3.47 20.156,7.94c-3.567,11.41 15.979,11.41 9.773,0c-6.181,-11.41 9.163,-8.16 18.936,-7.94c9.773,0.195 25.019,-5.986 19.033,5.424c-5.986,11.385 13.56,11.385 9.773,-0c-3.787,-11.41 10.286,-3.396 20.059,-5.424m-488.65,57.001c9.773,0.611 24.848,7.183 19.693,-4.203c-5.18,-11.41 14.366,-11.41 9.773,0c-4.618,11.386 9.626,3.567 19.399,4.203c9.773,0.635 24.286,-4.252 20.792,7.134c-3.518,11.41 16.028,11.41 9.773,0c-6.279,-11.386 8.527,-8.478 18.3,-7.134c9.773,1.344 21.549,-6.768 17.591,4.642c-3.958,11.41 15.588,11.41 9.773,-0c-5.815,-11.41 11.728,-4.471 21.501,-4.642c9.773,-0.171 27.291,7.036 20.963,-4.374c-6.328,-11.385 13.218,-11.385 9.773,0c-3.445,11.41 8.356,3.91 18.129,4.374c9.773,0.464 22.918,-5.498 17.811,5.912c-5.106,11.386 14.44,11.386 9.773,0c-4.666,-11.41 11.508,-3.86 21.281,-5.912c9.773,-2.053 22.307,5.888 17.86,-5.498c-4.471,-11.41 15.075,-11.41 9.773,0c-5.326,11.386 11.459,6.695 21.232,5.498c9.773,-1.197 22.942,6.035 18.349,-5.375c-4.618,-11.41 14.928,-11.41 9.773,-0c-5.18,11.41 10.97,5.986 20.743,5.375c9.773,-0.611 25.092,-7.208 18.397,4.202c-6.719,11.386 12.827,11.386 9.773,0c-3.078,-11.41 10.922,-5.961 20.695,-4.202c9.773,1.759 27.34,6.621 21.232,-4.789c-6.109,-11.386 13.437,-11.386 9.773,-0c-3.665,11.41 8.087,2.81 17.86,4.789c9.773,1.979 25.654,7.256 19.399,-4.154c-6.279,-11.385 13.267,-11.385 9.773,0c-3.518,11.41 9.92,5.204 19.693,4.154m-488.65,57.001c9.773,0.855 23.382,3.469 19.741,-7.941c-3.664,-11.41 15.882,-11.41 9.773,0c-6.132,11.41 9.578,7.843 19.351,7.941c9.773,0.122 23.431,6.768 18.642,-4.642c-4.789,-11.386 14.757,-11.386 9.773,-0c-4.984,11.41 10.677,3.445 20.45,4.642c9.773,1.197 26.973,5.204 21.232,-6.206c-5.742,-11.386 13.804,-11.386 9.773,-0c-4.032,11.41 8.087,5.815 17.86,6.206c9.773,0.415 22.624,3.616 19.375,-7.77c-3.25,-11.41 16.296,-11.41 9.773,0c-6.524,11.386 9.944,8.771 19.717,7.77c9.773,-0.978 26.949,6.108 20.572,-5.302c-6.377,-11.41 13.169,-11.41 9.773,-0c-3.396,11.41 8.747,3.567 18.52,5.302c9.773,1.734 23.431,-3.885 20.205,7.525c-3.225,11.41 16.321,11.41 9.773,-0c-6.547,-11.41 9.114,-6.133 18.887,-7.525c9.773,-1.393 24.432,7.183 18.495,-4.203c-5.937,-11.41 13.609,-11.41 9.773,0c-3.836,11.386 10.824,2.663 20.597,4.203c9.773,1.539 25.581,3.958 19.986,-7.452c-5.596,-11.41 13.95,-11.41 9.773,-0c-4.178,11.41 9.333,8.063 19.106,7.452c9.773,-0.587 21.94,3.469 17.664,-7.941c-4.275,-11.41 15.271,-11.41 9.773,0c-5.497,11.41 11.655,9.456 21.428,7.941c9.773,-1.491 22.991,-4.325 18.251,7.085c-4.74,11.41 14.806,11.41 9.773,0c-5.033,-11.41 11.068,-6.352 20.841,-7.085m-488.65,57.025c9.773,1.026 24.53,-5.497 20.768,5.913c-3.763,11.385 15.783,11.385 9.773,-0c-6.011,-11.41 8.551,-6.402 18.324,-5.913c9.773,0.464 25.581,5.913 18.96,-5.497c-6.622,-11.386 12.924,-11.386 9.773,-0c-3.152,11.41 10.359,6.157 20.132,5.497c9.773,-0.66 27.706,4.031 21.085,-7.378c-6.597,-11.386 12.949,-11.386 9.773,-0c-3.152,11.409 8.234,9.284 18.007,7.378c9.773,-1.93 25.068,4.422 20.89,-6.988c-4.154,-11.385 15.392,-11.385 9.773,0c-5.595,11.41 8.429,5.009 18.202,6.988c9.773,1.955 27.926,-6.792 21.207,4.593c-6.719,11.41 12.827,11.41 9.773,0c-3.054,-11.385 8.112,-2.541 17.885,-4.593c9.773,-2.052 21.989,-6.352 18.813,5.058c-3.201,11.41 16.345,11.41 9.773,-0c-6.597,-11.41 10.506,-5.962 20.279,-5.058c9.773,0.88 23.064,5.351 18.153,-6.035c-4.911,-11.41 14.635,-11.41 9.773,0c-4.862,11.386 11.166,8.258 20.939,6.035c9.773,-2.223 26.191,4.838 20.352,-6.572c-5.815,-11.41 13.731,-11.41 9.773,-0c-3.934,11.41 8.967,7.403 18.74,6.572c9.773,-0.831 24.408,-6.792 18.959,4.618c-5.424,11.41 14.122,11.41 9.773,-0c-4.324,-11.41 10.36,-3.372 20.133,-4.618c9.773,-1.27 24.799,-7.085 21.085,4.325c-3.714,11.385 15.832,11.385 9.773,-0c-6.059,-11.41 8.234,-2.126 18.007,-4.325m-488.65,57.001c9.773,-0.049 25.801,-7.207 19.668,4.202c-6.108,11.41 13.438,11.41 9.773,0c-3.64,-11.409 9.651,-6.376 19.424,-4.202c9.773,2.175 25.532,3.665 19.595,-7.745c-5.937,-11.41 13.609,-11.41 9.773,0c-3.836,11.41 9.724,9.895 19.497,7.745c9.773,-2.15 24.97,3.763 18.398,-7.647c-6.573,-11.386 12.973,-11.386 9.773,-0c-3.201,11.41 10.921,9.602 20.694,7.647c9.773,-1.954 24.603,-5.693 21.305,5.717c-3.274,11.386 16.272,11.386 9.773,0c-6.475,-11.41 8.014,-4.495 17.787,-5.717c9.773,-1.222 23.333,5.864 18.031,-5.546c-5.302,-11.41 14.244,-11.41 9.773,-0c-4.471,11.41 11.288,6.523 21.061,5.546c9.773,-0.977 24.188,4.96 20.987,-6.45c-3.176,-11.386 16.37,-11.386 9.773,-0c-6.572,11.41 8.332,7.989 18.105,6.45c9.773,-1.539 22.16,-6.328 17.884,5.082c-4.251,11.386 15.295,11.386 9.773,0c-5.497,-11.41 11.435,-4.691 21.208,-5.082c9.773,-0.391 26.216,6.23 21.012,-5.18c-5.229,-11.41 14.317,-11.41 9.773,0c-4.569,11.41 8.307,7.184 18.08,5.18c9.773,-2.003 23.601,4.716 17.958,-6.67c-5.62,-11.41 13.926,-11.41 9.773,0c-4.13,11.386 11.361,4.52 21.134,6.67c9.773,2.15 26.338,4.129 21.158,-7.256c-5.179,-11.41 14.366,-11.41 9.773,-0c-4.593,11.385 8.161,9.089 17.934,7.256m-488.65,57.001c9.773,0.757 24.432,3.567 19.375,-7.818c-5.082,-11.41 14.464,-11.41 9.773,-0c-4.716,11.385 9.944,7.623 19.717,7.818c9.773,0.22 24.017,6.768 19.693,-4.642c-4.349,-11.41 15.197,-11.41 9.773,-0c-5.449,11.41 9.626,6.523 19.399,4.642c9.773,-1.857 25.996,-6.914 20.499,4.496c-5.473,11.385 14.073,11.385 9.773,-0c-4.276,-11.41 8.82,-3.836 18.593,-4.496c9.773,-0.635 25.116,5.253 19.741,-6.132c-5.35,-11.41 14.196,-11.41 9.773,-0c-4.398,11.385 9.578,5.497 19.351,6.132c9.773,0.635 24.041,-5.399 20.548,5.986c-3.47,11.41 16.076,11.41 9.773,0c-6.28,-11.385 8.771,-6.401 18.544,-5.986c9.773,0.415 25.043,-5.595 20.157,5.815c-4.887,11.386 14.659,11.386 9.773,0c-4.887,-11.41 9.162,-7.476 18.935,-5.815c9.773,1.686 23.65,7.061 19.717,-4.324c-3.958,-11.41 15.588,-11.41 9.773,-0c-5.84,11.385 9.602,5.35 19.375,4.324c9.773,-1.026 24.579,5.766 19.448,-5.644c-5.106,-11.41 14.44,-11.41 9.773,0c-4.642,11.41 9.871,7.55 19.644,5.644c9.773,-1.881 25.458,-6.255 21.06,5.155c-4.373,11.41 15.173,11.41 9.773,0c-5.375,-11.41 8.259,-2.956 18.032,-5.155c9.773,-2.174 27.535,5.033 21.476,-6.352c-6.035,-11.41 13.511,-11.41 9.773,-0c-3.714,11.385 7.843,5.986 17.616,6.352m-488.65,57.025c9.773,-2.247 26.631,7.623 20.303,-3.787c-6.352,-11.41 13.194,-11.41 9.773,0c-3.445,11.41 9.016,4.154 18.789,3.787c9.773,-0.366 26.68,6.231 20.768,-5.179c-5.913,-11.386 13.633,-11.386 9.773,-0c-3.861,11.41 8.551,6.23 18.324,5.179c9.773,-1.075 21.305,4.252 17.616,-7.134c-3.714,-11.41 15.832,-11.41 9.773,0c-6.084,11.386 11.703,8.967 21.476,7.134c9.773,-1.856 24.212,-6.987 17.86,4.398c-6.377,11.41 13.169,11.41 9.773,0c-3.421,-11.385 11.459,-6.328 21.232,-4.398c9.773,1.906 25.165,6.939 19.302,-4.471c-5.864,-11.41 13.682,-11.41 9.773,0c-3.91,11.41 10.017,3.567 19.79,4.471c9.773,0.88 25.336,-6.718 19.619,4.667c-5.717,11.41 13.829,11.41 9.773,0c-4.056,-11.385 9.7,-4.495 19.473,-4.667c9.773,-0.171 24.652,7.233 18.862,-4.177c-5.815,-11.386 13.731,-11.386 9.773,-0c-3.983,11.41 10.457,5.741 20.23,4.177c9.773,-1.563 24.725,-5.912 20.157,5.498c-4.569,11.385 14.977,11.385 9.773,-0c-5.205,-11.41 9.162,-7.257 18.935,-5.498c9.773,1.735 22.062,-3.689 17.64,7.721c-4.447,11.41 15.099,11.41 9.773,0c-5.351,-11.41 11.679,-8.478 21.452,-7.721c9.773,0.758 23.772,4.838 18.422,-6.572c-5.351,-11.41 14.195,-11.41 9.773,0c-4.423,11.41 10.897,7.892 20.67,6.572" style="fill:none;fill-rule:nonzero;stroke:rgb(0,0,139);stroke-width:0.24px;stroke-linecap:butt;stroke-linejoin:miter;stroke-miterlimit:4;"/>
        <path d="M55.865,9c1.686,11.41 -3.103,30.687 6.67,23.724c9.773,-6.988 9.773,15.832 0,11.385c-9.773,-4.422 -6.352,10.506 -6.67,21.892c-0.318,11.41 -5.522,29.441 4.251,24.628c9.773,-4.789 9.773,18.007 0,11.41c-9.773,-6.597 -4.153,9.577 -4.251,20.987c-0.098,11.386 6.059,30.223 -3.714,22.894c-9.773,-7.33 -9.773,15.465 0,11.41c9.773,-4.081 4.984,11.287 3.714,22.697c-1.271,11.41 3.225,31.03 -6.548,24.97c-9.773,-6.083 -9.773,16.712 0,11.386c9.773,-5.326 7.745,9.26 6.548,20.645c-1.197,11.41 -5.082,29.49 4.691,23.211c9.773,-6.303 9.773,16.517 -0,11.386c-9.773,-5.107 -6.377,11.019 -4.691,22.429c1.686,11.385 -4.618,31.567 5.155,24.823c9.773,-6.768 9.773,16.028 0,11.386c-9.773,-4.642 -3.689,9.382 -5.155,20.792c-1.466,11.41 -4.667,28.512 5.106,24.334c9.773,-4.153 9.773,18.642 0,11.41c-9.773,-7.232 -6.792,9.871 -5.106,21.257c1.686,11.41 -5.62,25.703 4.153,20.963c9.773,-4.765 9.773,18.055 0,11.385c-9.773,-6.645 -3.664,13.267 -4.153,24.677c-0.489,11.386 4.007,27.633 -5.766,22.893c-9.773,-4.764 -9.773,18.032 -0,11.386c9.773,-6.646 6.817,11.312 5.766,22.722c-1.051,11.41 4.544,25.239 -5.229,21.794c-9.773,-3.445 -9.773,19.375 0,11.41c9.773,-7.965 6.011,12.412 5.229,23.797c-0.782,11.41 5.766,28 -4.007,22.16c-9.773,-5.863 -9.773,16.956 0,11.386c9.773,-5.546 2.932,12.07 4.007,23.479c1.075,11.386 -3.372,31.03 6.401,24.946c9.773,-6.084 9.773,16.712 0,11.41c-9.773,-5.326 -8.062,9.236 -6.401,20.645m48.865,-684.109c0.782,11.41 2.956,29.612 -6.817,22.405c-9.773,-7.232 -9.773,15.588 0,11.385c9.773,-4.178 6.499,11.825 6.817,23.211c0.318,11.41 -3.079,29.759 6.694,21.867c9.773,-7.892 9.773,14.928 0,11.41c-9.773,-3.518 -7.256,12.338 -6.694,23.748c0.562,11.386 -4.202,30.028 5.571,23.749c9.773,-6.279 9.773,16.516 -0,11.385c-9.773,-5.106 -4.447,10.457 -5.571,21.867c-1.124,11.41 5.961,26.925 -3.812,23.358c-9.773,-3.543 -9.773,19.253 0,11.41c9.773,-7.843 4.814,10.848 3.812,22.233c-1.002,11.41 -5.864,27.462 3.909,23.382c9.773,-4.08 9.773,18.74 0,11.41c-9.773,-7.33 -5.399,10.824 -3.909,22.234c1.49,11.385 6.059,28.781 -3.714,21.842c-9.773,-6.963 -9.773,15.833 0,11.386c9.773,-4.447 4.984,12.363 3.714,23.773c-1.271,11.41 5.644,28.073 -4.129,22.746c-9.773,-5.326 -9.773,17.47 -0,11.41c9.773,-6.083 2.272,11.459 4.129,22.845c1.857,11.41 -3.909,29.001 5.864,24.188c9.773,-4.813 9.773,17.982 -0,11.41c-9.773,-6.597 -5.082,10.017 -5.864,21.427c-0.782,11.386 3.152,31.591 -6.621,23.944c-9.773,-7.647 -9.773,15.148 -0,11.41c9.773,-3.763 6.987,10.237 6.621,21.647c-0.367,11.41 5.546,27.413 -4.227,22.234c-9.773,-5.18 -9.773,17.615 0,11.385c9.773,-6.206 3.103,11.997 4.227,23.382c1.124,11.41 3.127,29.197 -6.646,21.574c-9.773,-7.647 -9.773,15.148 0,11.386c9.773,-3.763 6.621,12.656 6.646,24.065c0.024,11.386 4.129,27.169 -5.644,20.817c-9.773,-6.377 -9.773,16.443 0,11.386c9.773,-5.034 3.86,13.389 5.644,24.798m48.865,-684.109c1.832,11.41 -4.789,27.487 4.984,21.354c9.773,-6.133 9.773,16.687 0,11.41c-9.773,-5.277 -5.399,12.851 -4.984,24.237c0.415,11.41 3.567,28.293 -6.206,23.26c-9.773,-5.033 -9.773,17.787 0,11.41c9.773,-6.377 6.572,10.945 6.206,22.355c-0.367,11.386 -6.084,29.417 3.689,22.503c9.773,-6.915 9.773,15.905 0,11.41c-9.773,-4.496 -2.199,11.678 -3.689,23.088c-1.49,11.41 3.005,26.73 -6.768,22.087c-9.773,-4.666 -9.773,18.129 0,11.386c9.773,-6.743 6.914,12.143 6.768,23.528c-0.147,11.41 6.572,27.731 -3.201,22.845c-9.773,-4.887 -9.773,17.909 0,11.41c9.773,-6.524 4.496,11.361 3.201,22.771c-1.295,11.385 4.251,28.659 -5.522,22.282c-9.773,-6.352 -9.773,16.443 0,11.41c9.773,-5.033 5.009,11.899 5.522,23.309c0.513,11.41 -5.668,29.441 4.105,22.893c9.773,-6.572 9.773,16.248 -0,11.386c-9.773,-4.838 -5.082,11.336 -4.105,22.722c0.977,11.41 -5.18,29.294 4.593,23.308c9.773,-5.961 9.773,16.834 0,11.41c-9.773,-5.424 -3.885,10.897 -4.593,22.307c-0.709,11.386 -4.3,29.734 5.473,24.237c9.773,-5.497 9.773,17.298 -0,11.41c-9.773,-5.913 -3.763,9.944 -5.473,21.354c-1.71,11.41 3.738,27.658 -6.035,23.016c-9.773,-4.643 -9.773,18.177 0,11.409c9.773,-6.767 6.255,11.191 6.035,22.576c-0.22,11.41 -4.667,27.071 5.106,22.258c9.773,-4.813 9.773,17.982 0,11.386c-9.773,-6.573 -4.3,11.972 -5.106,23.381c-0.806,11.386 -4.227,30.663 5.546,23.236c9.773,-7.452 9.773,15.343 0,11.385c-9.773,-3.958 -4.324,10.971 -5.546,22.38m48.865,-684.109c1.612,11.41 5.57,29.783 -4.203,22.111c-9.773,-7.647 -9.773,15.149 0,11.41c9.773,-3.738 3.641,12.094 4.203,23.48c0.562,11.41 6.303,28.415 -3.47,22.6c-9.773,-5.79 -9.773,17.005 0,11.41c9.773,-5.595 4.96,11.605 3.47,23.015c-1.491,11.386 5.79,29.002 -3.983,21.599c-9.773,-7.428 -9.773,15.368 0,11.385c9.773,-3.982 3.47,12.607 3.983,24.017c0.513,11.41 -4.349,27.829 5.424,21.501c9.773,-6.352 9.773,16.443 -0,11.385c-9.773,-5.057 -4.887,12.73 -5.424,24.115c-0.538,11.41 -4.447,28.537 5.326,24.482c9.773,-4.081 9.773,18.739 0,11.385c-9.773,-7.33 -6.401,9.749 -5.326,21.159c1.075,11.385 -4.154,32.348 5.619,24.481c9.773,-7.892 9.773,14.904 0,11.386c-9.773,-3.519 -4.3,9.724 -5.619,21.134c-1.32,11.41 4.862,26.362 -4.911,21.451c-9.773,-4.935 -9.773,17.885 -0,11.386c9.773,-6.475 6.255,12.778 4.911,24.164c-1.344,11.41 5.815,27.999 -3.958,24.432c-9.773,-3.567 -9.773,19.229 -0,11.41c9.773,-7.843 5.693,9.773 3.958,21.183c-1.735,11.386 4.202,30.883 -5.571,24.262c-9.773,-6.622 -9.773,16.174 0,11.385c9.773,-4.764 4.765,9.944 5.571,21.354c0.806,11.41 6.719,28.488 -3.054,24.164c-9.773,-4.325 -9.773,18.471 -0,11.41c9.773,-7.086 4.3,10.042 3.054,21.427c-1.246,11.41 -6.768,30.419 3.005,23.7c9.773,-6.695 9.773,16.101 0,11.41c-9.773,-4.691 -2.199,10.506 -3.005,21.915c-0.806,11.386 -3.176,27.511 6.597,21.135c9.773,-6.402 9.773,16.418 -0,11.385c-9.773,-5.009 -6.524,13.072 -6.597,24.481m48.865,-684.109c1.124,11.41 -4.447,27.389 5.326,21.256c9.773,-6.132 9.773,16.663 0,11.41c-9.773,-5.277 -6.694,12.949 -5.326,24.335c1.368,11.41 5.815,28.928 -3.958,22.869c-9.773,-6.059 -9.773,16.76 -0,11.41c9.773,-5.351 5.473,11.336 3.958,22.746c-1.515,11.386 3.494,26.901 -6.279,20.939c-9.773,-5.937 -9.773,16.858 -0,11.41c9.773,-5.448 4.886,13.242 6.279,24.652c1.392,11.41 -3.958,27.365 5.815,23.456c9.773,-3.885 9.773,18.91 -0,11.41c-9.773,-7.501 -5.84,10.75 -5.815,22.135c0.024,11.41 4.178,27.12 -5.595,22.356c-9.773,-4.789 -9.773,18.031 -0,11.41c9.773,-6.646 5.424,11.85 5.595,23.26c0.171,11.385 3.2,26.118 -6.573,20.938c-9.773,-5.155 -9.773,17.641 0,11.41c9.773,-6.23 7.452,13.243 6.573,24.653c-0.88,11.41 5.302,28.561 -4.471,21.891c-9.773,-6.694 -9.773,16.101 -0,11.386c9.773,-4.716 3.005,12.338 4.471,23.724c1.466,11.41 6.548,31.273 -3.225,23.308c-9.773,-7.94 -9.773,14.855 -0,11.41c9.773,-3.445 4.08,10.897 3.225,22.307c-0.855,11.386 -3.274,27.34 6.499,21.818c9.773,-5.497 9.773,17.299 -0,11.41c-9.773,-5.888 -5.791,12.363 -6.499,23.773c-0.709,11.41 6.059,27.658 -3.714,23.944c-9.773,-3.714 -9.773,19.082 0,11.41c9.773,-7.696 4.984,10.262 3.714,21.647c-1.271,11.41 4.886,27.364 -4.887,23.724c-9.773,-3.665 -9.773,19.131 0,11.386c9.773,-7.746 6.328,10.506 4.887,21.915c-1.442,11.386 -4.496,31.323 5.277,23.578c9.773,-7.745 9.773,15.075 0,11.41c-9.773,-3.665 -6.621,10.604 -5.277,22.013m48.865,-684.109c1.099,11.41 4.837,28.244 -4.936,21.061c-9.773,-7.208 -9.773,15.612 0,11.41c9.773,-4.227 5.4,13.144 4.936,24.53c-0.464,11.41 -3.641,27.071 6.132,22.893c9.773,-4.178 9.773,18.618 0,11.41c-9.773,-7.232 -4.813,11.312 -6.132,22.722c-1.32,11.386 4.862,31.25 -4.911,23.993c-9.773,-7.281 -9.773,15.539 -0,11.386c9.773,-4.129 5.082,10.212 4.911,21.622c-0.171,11.41 6.523,27.487 -3.25,21.305c-9.773,-6.205 -9.773,16.615 0,11.386c9.773,-5.204 4.911,12.925 3.25,24.31c-1.662,11.41 6.523,28.953 -3.25,23.089c-9.773,-5.864 -9.773,16.956 0,11.41c9.773,-5.546 2.517,11.117 3.25,22.527c0.733,11.385 5.619,27.633 -4.154,23.088c-9.773,-4.544 -9.773,18.252 0,11.386c9.773,-6.841 5.4,11.117 4.154,22.527c-1.246,11.41 -3.421,28.61 6.352,20.67c9.773,-7.941 9.773,14.855 0,11.41c-9.773,-3.47 -6.035,13.535 -6.352,24.921c-0.318,11.41 -4.3,26.045 5.473,21.354c9.773,-4.716 9.773,18.08 -0,11.385c-9.773,-6.694 -6.939,12.876 -5.473,24.286c1.466,11.386 -3.787,29.075 5.986,24.726c9.773,-4.349 9.773,18.471 -0,11.41c-9.773,-7.061 -4.545,9.455 -5.986,20.865c-1.442,11.41 -4.765,27.438 5.008,23.529c9.773,-3.934 9.773,18.886 0,11.385c-9.773,-7.476 -4.373,10.702 -5.008,22.087c-0.635,11.41 4.056,26.827 -5.717,21.892c-9.773,-4.936 -9.773,17.86 -0,11.41c9.773,-6.475 4.104,12.314 5.717,23.723c1.612,11.386 -4.398,24.824 5.375,20.768c9.773,-4.031 9.773,18.764 -0,11.41c-9.773,-7.354 -7.037,13.414 -5.375,24.823m48.865,-684.109c-0.074,11.41 -5.009,32.055 4.764,25.043c9.773,-7.036 9.773,15.784 0,11.41c-9.773,-4.398 -4.373,9.162 -4.764,20.548c-0.391,11.41 3.885,27.829 -5.888,22.502c-9.773,-5.326 -9.773,17.47 -0,11.386c9.773,-6.059 7.574,11.727 5.888,23.137c-1.686,11.386 4.617,24.189 -5.156,20.597c-9.773,-3.616 -9.773,19.179 0,11.386c9.773,-7.794 4.74,13.608 5.156,25.018c0.415,11.41 4.031,25.606 -5.742,21.721c-9.773,-3.909 -9.773,18.886 0,11.385c9.773,-7.5 4.911,12.51 5.742,23.895c0.83,11.41 6.572,26.607 -3.201,22.307c-9.773,-4.3 -9.773,18.52 0,11.41c9.773,-7.11 1.49,11.899 3.201,23.309c1.71,11.385 -3.934,26.094 5.839,21.989c9.773,-4.105 9.773,18.691 0,11.41c-9.773,-7.305 -5.204,12.192 -5.839,23.602c-0.636,11.41 -3.641,30.76 6.132,24.017c9.773,-6.743 9.773,16.052 0,11.41c-9.773,-4.667 -5.961,10.188 -6.132,21.574c-0.171,11.41 5.033,27.682 -4.74,23.235c-9.773,-4.447 -9.773,18.349 -0,11.41c9.773,-6.963 3.127,10.97 4.74,22.38c1.612,11.386 6.572,26.974 -3.201,22.747c-9.773,-4.227 -9.773,18.568 0,11.41c9.773,-7.183 2.468,11.434 3.201,22.844c0.733,11.41 -3.812,25.117 5.961,21.134c9.773,-3.982 9.773,18.838 0,11.41c-9.773,-7.427 -7.378,13.072 -5.961,24.457c1.417,11.41 -4.789,26.851 4.984,22.649c9.773,-4.178 9.773,18.618 -0,11.41c-9.773,-7.208 -6.768,11.557 -4.984,22.966c1.783,11.386 -4.862,28 4.911,23.309c9.773,-4.715 9.773,18.08 -0,11.386c-9.773,-6.695 -3.396,10.897 -4.911,22.306m48.865,-684.109c1.246,11.41 -5.644,28.073 4.129,22.087c9.773,-5.986 9.773,16.81 -0,11.385c-9.773,-5.399 -5.791,12.143 -4.129,23.529c1.661,11.41 -3.47,29.197 6.303,23.528c9.773,-5.643 9.773,17.152 0,11.41c-9.773,-5.741 -7.769,10.677 -6.303,22.087c1.466,11.386 3.005,30.517 -6.768,23.969c-9.773,-6.524 -9.773,16.272 -0,11.41c9.773,-4.862 5.717,10.212 6.768,21.622c1.05,11.41 -6.622,28.635 3.151,21.232c9.773,-7.403 9.773,15.393 0,11.41c-9.773,-4.007 -4.813,12.974 -3.151,24.359c1.661,11.41 -3.274,29.979 6.499,23.333c9.773,-6.621 9.773,16.199 -0,11.41c-9.773,-4.764 -5.571,10.873 -6.499,22.283c-0.929,11.385 3.982,26.216 -5.791,20.914c-9.773,-5.302 -9.773,17.494 0,11.385c9.773,-6.083 6.328,13.292 5.791,24.702c-0.538,11.41 5.326,29.807 -4.447,22.111c-9.773,-7.696 -9.773,15.099 -0,11.41c9.773,-3.714 3.714,12.094 4.447,23.48c0.733,11.41 4.202,26.949 -5.571,21.745c-9.773,-5.204 -9.773,17.591 0,11.385c9.773,-6.181 5.888,12.485 5.571,23.895c-0.318,11.386 -4.032,28.806 5.741,22.991c9.773,-5.815 9.773,16.981 0,11.386c-9.773,-5.571 -5.302,11.214 -5.741,22.624c-0.44,11.41 -3.323,29.099 6.45,23.822c9.773,-5.278 9.773,17.542 -0,11.41c-9.773,-6.133 -6.157,10.384 -6.45,21.769c-0.293,11.41 -4.423,29.71 5.35,24.457c9.773,-5.253 9.773,17.543 0,11.41c-9.773,-6.157 -6.743,9.749 -5.35,21.158c1.392,11.386 3.347,28.513 -6.426,22.307c-9.773,-6.205 -9.773,16.59 -0,11.386c9.773,-5.18 4.96,11.899 6.426,23.308m48.865,-684.109c-1.002,11.41 -5.62,24.701 4.153,20.816c9.773,-3.884 9.773,18.911 0,11.386c-9.773,-7.501 -4.398,13.413 -4.153,24.799c0.244,11.41 4.959,26.192 -4.814,21.476c-9.773,-4.715 -9.773,18.105 0,11.41c9.773,-6.694 4.349,12.729 4.814,24.139c0.464,11.386 3.787,27.707 -5.986,23.846c-9.773,-3.86 -9.773,18.936 -0,11.41c9.773,-7.549 5.546,10.335 5.986,21.745c0.439,11.41 -5.204,27.805 4.569,22.771c9.773,-5.033 9.773,17.787 -0,11.41c-9.773,-6.376 -4.105,11.435 -4.569,22.82c-0.465,11.41 3.176,29.246 -6.597,23.04c-9.773,-6.181 -9.773,16.614 -0,11.41c9.773,-5.204 7.989,11.166 6.597,22.576c-1.393,11.385 -5.204,25.971 4.569,22.233c9.773,-3.738 9.773,19.082 -0,11.41c-9.773,-7.672 -4.154,11.948 -4.569,23.358c-0.416,11.41 4.349,27.486 -5.424,23.211c-9.773,-4.276 -9.773,18.519 -0,11.41c9.773,-7.135 4.275,10.994 5.424,22.38c1.148,11.41 3.494,28.635 -6.279,20.816c-9.773,-7.794 -9.773,15.002 -0,11.41c9.773,-3.591 7.965,13.389 6.279,24.799c-1.686,11.386 4.251,30.638 -5.522,24.677c-9.773,-5.937 -9.773,16.858 -0,11.41c9.773,-5.449 6.401,9.504 5.522,20.914c-0.88,11.41 -5.156,28.684 4.617,24.677c9.773,-4.031 9.773,18.764 0,11.385c-9.773,-7.378 -6.474,9.554 -4.617,20.939c1.857,11.41 6.694,32.422 -3.079,24.53c-9.773,-7.891 -9.773,14.904 0,11.41c9.773,-3.518 3.518,9.676 3.079,21.085c-0.44,11.386 5.692,29.662 -4.081,24.531c-9.773,-5.131 -9.773,17.689 0,11.41c9.773,-6.279 3.226,9.651 4.081,21.06" style="fill:none;fill-rule:nonzero;stroke:rgb(139,0,0);stroke-width:0.24px;stroke-linecap:butt;stroke-linejoin:miter;stroke-miterlimit:4;"/>
        <path d="M11.886,9l478.877,0c2.681,0 4.887,2.206 4.887,4.886l-0,674.337c-0,2.681 -2.206,4.886 -4.887,4.886l-478.877,0c-2.68,0 -4.886,-2.205 -4.886,-4.886l-0,-674.337c-0,-2.68 2.206,-4.886 4.886,-4.886" style="fill:none;fill-rule:nonzero;stroke:black;stroke-width:0.24px;stroke-linecap:butt;stroke-linejoin:miter;stroke-miterlimit:4;"/>
    </g>
</svg>
